<?xml version="1.0" standalone="no"?>
<!DOCTYPE svg PUBLIC "-//W3C//DTD SVG 20010904//EN"
 "http://www.w3.org/TR/2001/REC-SVG-20010904/DTD/svg10.dtd">
<svg version="1.0" xmlns="http://www.w3.org/2000/svg"
 width="206.000000pt" height="201.000000pt" viewBox="0 0 206.000000 201.000000"
 preserveAspectRatio="xMidYMid meet">

<g transform="translate(0.000000,201.000000) scale(0.100000,-0.100000)"
fill="#000000" stroke="none">
<path d="M915 1961 c-204 -78 -411 -196 -576 -329 -93 -75 -251 -239 -302
-314 l-38 -56 11 -136 c22 -282 81 -478 252 -841 39 -82 76 -155 82 -162 13
-14 277 -75 431 -100 76 -12 163 -17 280 -17 182 0 290 15 509 71 l110 28 44
65 c166 246 315 688 329 980 l5 105 -83 110 c-167 223 -359 383 -604 505 -135
66 -298 130 -333 130 -9 0 -62 -18 -117 -39z m232 -32 c345 -121 622 -332 832
-635 l42 -62 -11 -98 c-23 -207 -86 -439 -175 -649 -72 -169 -180 -349 -195
-325 -5 9 1 28 19 54 47 69 188 375 221 481 46 143 78 294 91 417 l10 107 -32
48 c-87 128 -239 290 -357 381 -117 91 -311 193 -472 250 l-86 30 -131 -53
c-236 -95 -458 -236 -634 -403 -64 -61 -100 -89 -105 -81 -4 7 -3 9 3 6 6 -4
16 0 23 8 9 11 9 15 1 15 -18 0 54 74 154 158 100 84 239 178 360 243 97 53
302 138 332 139 12 0 61 -14 110 -31z m-2 -50 c277 -101 539 -286 713 -508
123 -155 114 -130 97 -273 -16 -135 -55 -301 -105 -443 -32 -90 -175 -386
-212 -438 l-20 -28 -49 65 c-54 71 -65 81 -74 66 -12 -20 -31 -10 -48 25 -9
19 -21 35 -27 35 -15 0 -13 -5 21 -65 17 -30 26 -55 20 -55 -6 0 -22 22 -36
49 -28 57 -42 69 -51 46 -4 -10 3 -26 16 -41 28 -29 16 -31 -25 -4 -34 22 -70
27 -62 8 3 -7 8 -22 12 -33 6 -16 5 -17 -4 -5 -6 8 -11 11 -11 6 0 -4 11 -22
25 -38 14 -17 23 -33 19 -37 -3 -3 -25 16 -49 43 -38 44 -45 48 -73 43 -22 -4
-30 -3 -28 6 1 7 1 9 -1 5 -3 -5 -9 -8 -14 -8 -6 0 -7 5 -3 12 4 7 3 8 -5 4
-8 -6 -5 -15 14 -31 27 -26 31 -40 15 -50 -5 -3 -10 1 -10 9 0 22 -34 37 -68
30 -17 -4 -32 -1 -36 5 -5 7 5 11 30 11 29 0 34 3 25 13 -6 8 -7 18 -3 22 4 5
1 5 -6 1 -7 -4 -10 -11 -8 -15 3 -4 -1 -8 -8 -8 -8 0 -12 7 -8 15 3 10 1 13
-6 8 -7 -4 -12 -2 -12 4 0 6 -5 8 -12 4 -9 -6 -9 -9 0 -12 21 -7 13 -17 -12
-17 -18 0 -22 3 -14 13 7 8 7 12 0 12 -6 0 -9 7 -6 15 7 18 -7 20 -25 3 -11
-10 -13 -10 -7 0 5 8 0 12 -14 12 -12 0 -19 4 -16 9 7 11 -88 26 -104 16 -5
-3 -10 -1 -10 4 0 7 57 11 170 11 159 0 170 1 180 20 6 11 19 20 29 20 12 0
21 10 25 25 4 16 13 25 26 25 13 0 20 7 20 19 0 11 8 27 17 37 16 15 15 16
-13 11 -16 -3 -46 -8 -66 -12 l-38 -6 0 45 0 44 -37 -4 c-97 -9 -165 -11 -240
-5 l-82 6 -3 -40 -3 -40 -40 3 c-36 3 -86 13 -138 29 -15 4 -17 2 -10 -14 16
-31 9 -57 -19 -70 -35 -17 -120 -33 -176 -33 l-46 0 28 29 28 29 -26 17 c-40
27 -31 35 38 35 72 0 96 6 91 23 -2 7 -6 24 -9 38 -3 16 -22 37 -46 53 -39 26
-52 24 -27 -4 10 -12 9 -12 -6 0 -10 7 -16 19 -13 26 3 7 -1 26 -9 41 -8 15
-15 39 -16 53 0 19 -2 21 -7 9 -6 -14 -9 -15 -20 -3 -10 11 -10 14 0 14 10 0
10 2 -1 9 -7 5 -10 14 -7 20 10 15 1 14 -34 -4 -21 -11 -31 -12 -36 -3 -5 7
-3 8 6 3 10 -6 12 -4 6 10 -6 16 -4 16 11 4 15 -12 16 -12 11 2 -4 9 -1 22 5
29 9 10 8 12 -6 7 -19 -7 -24 9 -4 16 7 3 5 6 -5 6 -10 1 -18 5 -18 11 0 5 -8
7 -17 4 -15 -5 -15 -3 1 10 11 9 14 16 7 16 -7 0 -9 6 -6 13 4 6 -1 3 -9 -7
-17 -21 -19 -17 -16 28 1 16 -4 33 -12 37 -10 7 -9 9 5 9 26 0 16 23 -14 31
-24 6 -23 7 9 19 30 11 40 28 26 43 -4 3 -16 1 -27 -5 -16 -8 -22 -8 -25 1 -2
6 -10 11 -18 11 -8 0 -14 5 -14 10 0 13 47 13 55 0 6 -10 36 -2 47 14 14 20 8
55 -11 66 -16 8 -23 5 -40 -17 -12 -14 -25 -23 -29 -19 -4 4 2 14 13 22 17 12
18 16 5 24 -17 10 -40 -5 -40 -26 0 -18 -14 -18 -50 1 -26 14 -29 20 -26 53 2
20 7 46 11 57 8 19 7 19 -11 5 -39 -31 70 92 138 155 124 115 288 229 438 305
84 43 270 119 292 120 9 0 56 -14 103 -31z m-1098 -761 c-2 -18 -4 -4 -4 32 0
36 2 50 4 33 2 -18 2 -48 0 -65z m293 74 c0 -13 -12 -22 -22 -16 -10 6 -1 24
13 24 5 0 9 -4 9 -8z m-84 -109 c-10 -10 -19 5 -10 18 6 11 8 11 12 0 2 -7 1
-15 -2 -18z m-199 -65 c-2 -13 -4 -5 -4 17 -1 22 1 32 4 23 2 -10 2 -28 0 -40z
m188 -6 c1 -43 -12 -41 -17 3 -2 22 0 34 6 32 6 -2 11 -18 11 -35z m45 -7 c0
-19 -4 -35 -9 -35 -5 0 -11 16 -13 35 -3 24 0 35 9 35 8 0 13 -13 13 -35z
m-223 -52 c-3 -10 -5 -4 -5 12 0 17 2 24 5 18 2 -7 2 -21 0 -30z m256 -35 c10
-5 16 -12 13 -15 -3 -4 -1 -12 5 -19 7 -9 6 -14 -3 -20 -7 -4 -10 -4 -6 1 12
12 -29 42 -67 49 -19 4 -37 12 -41 17 -8 13 70 3 99 -13z m-246 -20 c-3 -7 -5
-2 -5 12 0 14 2 19 5 13 2 -7 2 -19 0 -25z m98 -308 c20 -52 72 -172 117 -267
l81 -172 98 -23 c54 -12 96 -24 94 -26 -2 -3 -47 5 -100 17 l-96 23 -53 106
c-112 224 -214 488 -230 597 -4 22 7 -5 23 -60 16 -55 46 -143 66 -195z m168
223 c4 -20 5 -38 4 -38 -1 -1 -13 4 -27 12 -19 9 -20 13 -7 13 9 0 17 7 17 15
0 10 -11 15 -32 16 -28 0 -30 2 -13 9 40 17 52 12 58 -27z m84 -45 c-3 -8 -6
-5 -6 6 -1 11 2 17 5 13 3 -3 4 -12 1 -19z m-57 -50 c0 -6 -7 -5 -15 2 -8 7
-24 10 -35 7 -27 -7 -25 2 3 12 22 9 47 -2 47 -21z m10 -38 c20 -20 29 -66 10
-55 -5 3 -10 13 -10 21 0 7 -9 19 -20 26 -11 7 -20 16 -20 20 0 14 20 8 40
-12z m698 -87 c-26 -2 -71 -2 -100 0 -29 2 -8 3 47 3 55 0 79 -1 53 -3z m-359
-44 c20 -7 31 -18 31 -30 0 -11 10 -23 24 -28 13 -5 26 -19 29 -30 4 -18 1
-17 -31 9 -19 16 -40 26 -45 23 -5 -3 -4 5 3 17 8 15 8 20 1 16 -6 -4 -11 -2
-11 3 0 6 -6 11 -14 11 -8 0 -18 5 -21 10 -8 13 -5 12 34 -1z m104 -26 c-7 -2
-21 -2 -30 0 -10 3 -4 5 12 5 17 0 24 -2 18 -5z m434 1 c-3 -3 -12 -4 -19 -1
-8 3 -5 6 6 6 11 1 17 -2 13 -5z m-576 -37 l-24 -22 19 27 c10 14 21 24 23 22
3 -3 -6 -15 -18 -27z m-382 -62 c0 -5 -6 1 -14 15 -8 14 -14 30 -14 35 0 6 6
-1 14 -15 8 -14 14 -29 14 -35z m545 -4 c4 -5 -3 -7 -14 -4 -23 6 -26 13 -6
13 8 0 17 -4 20 -9z m-192 -25 c39 -23 43 -28 41 -61 -1 -20 -7 -43 -12 -52
-6 -12 -7 -2 -4 28 5 44 4 46 -36 72 -37 25 -49 37 -36 37 2 0 24 -11 47 -24z
m257 -99 c36 -7 87 -10 113 -7 35 4 49 2 53 -8 9 -25 6 -35 -9 -23 -8 7 -36
11 -63 10 -26 -1 -68 3 -93 9 -24 6 -46 9 -48 7 -6 -6 -116 43 -120 53 -2 6
20 2 49 -9 28 -11 82 -25 118 -32z m-540 -22 c0 -5 -6 1 -14 15 -8 14 -14 30
-14 35 0 6 6 -1 14 -15 8 -14 14 -29 14 -35z m631 45 c0 -5 -5 -10 -11 -10 -5
0 -7 5 -4 10 3 6 8 10 11 10 2 0 4 -4 4 -10z m400 -91 c0 -18 -20 1 -36 34
l-15 32 25 -28 c15 -15 26 -33 26 -38z m-567 34 c14 -4 25 -23 13 -23 -16 0
-66 24 -66 32 0 6 8 7 18 3 9 -4 25 -10 35 -12z m430 -18 c4 -8 2 -17 -3 -20
-6 -4 -10 3 -10 14 0 25 6 27 13 6z m-129 -1 c23 -9 20 -24 -4 -24 -11 0 -20
7 -20 15 0 17 2 18 24 9z m-207 -36 c-3 -7 -5 -2 -5 12 0 14 2 19 5 13 2 -7 2
-19 0 -25z m148 9 c7 -7 4 -8 -8 -3 -10 3 -30 6 -43 6 -13 0 -24 5 -24 11 0
13 60 2 75 -14z m-240 -25 c-7 -7 -75 19 -70 28 3 4 20 1 40 -8 19 -9 33 -18
30 -20z m370 -2 c27 -30 12 -34 -15 -5 -13 14 -19 25 -13 25 5 0 18 -9 28 -20z
m-65 -16 c0 -8 -4 -14 -10 -14 -5 0 -10 9 -10 21 0 11 5 17 10 14 6 -3 10 -13
10 -21z m-63 -11 c3 -9 -4 -10 -28 -3 -17 5 -36 7 -40 4 -5 -3 -9 1 -9 9 0 17
71 8 77 -10z m-432 -73 c27 -7 27 -8 5 -8 -14 0 -36 4 -50 8 -20 6 -21 8 -5 8
11 0 34 -4 50 -8z m68 -17 c-7 -2 -19 -2 -25 0 -7 3 -2 5 12 5 14 0 19 -2 13
-5z m60 -10 c-7 -2 -21 -2 -30 0 -10 3 -4 5 12 5 17 0 24 -2 18 -5z m65 -10
c-10 -2 -26 -2 -35 0 -10 3 -2 5 17 5 19 0 27 -2 18 -5z m95 -10 c-13 -2 -33
-2 -45 0 -13 2 -3 4 22 4 25 0 35 -2 23 -4z"/>
<path d="M1005 1751 c-3 -6 -12 -28 -20 -50 -12 -36 -12 -41 0 -41 8 0 15 5
15 10 0 15 48 12 53 -2 2 -7 8 -10 11 -6 10 8 -30 98 -43 98 -5 0 -12 -4 -16
-9z m21 -48 c-10 -10 -19 5 -10 18 6 11 8 11 12 0 2 -7 1 -15 -2 -18z"/>
<path d="M1096 1738 c-9 -36 -7 -93 3 -82 5 5 11 20 14 34 4 24 4 24 16 -7 17
-44 37 -42 45 5 8 51 8 62 -3 62 -6 0 -11 -15 -13 -32 l-4 -33 -19 38 c-22 43
-30 46 -39 15z"/>
<path d="M865 1703 c9 -63 11 -65 48 -58 41 9 52 19 41 42 -8 19 -11 29 -13
51 -1 7 -17 12 -42 12 l-41 0 7 -47z m55 17 c0 -5 -6 -10 -14 -10 -8 0 -18 5
-21 10 -3 6 3 10 14 10 12 0 21 -4 21 -10z m6 -45 c-19 -14 -36 -12 -36 6 0 5
12 9 28 9 26 -1 26 -1 8 -15z"/>
<path d="M802 1733 c-9 -3 -11 -16 -7 -41 l6 -37 -21 32 c-13 20 -27 30 -36
26 -18 -7 -18 -13 2 -63 17 -42 41 -57 28 -17 -4 12 -9 29 -11 37 -3 8 5 0 17
-17 12 -18 26 -33 31 -33 5 0 9 15 10 33 1 27 2 29 7 9 4 -13 10 -23 15 -23 9
1 9 8 -4 53 -10 40 -17 48 -37 41z"/>
<path d="M1212 1718 c-7 -7 -12 -24 -12 -40 0 -35 43 -67 69 -51 22 14 25 39
5 47 -22 8 -33 -2 -14 -14 12 -8 12 -10 -2 -15 -24 -9 -38 2 -38 31 0 30 25
42 52 25 26 -16 34 -8 13 13 -19 19 -56 21 -73 4z"/>
<path d="M1325 1671 c-8 -17 -15 -39 -15 -50 0 -19 26 -41 49 -41 12 0 36 35
46 68 11 36 -13 26 -29 -13 -8 -19 -20 -35 -26 -35 -19 0 -22 27 -6 59 10 18
12 32 6 36 -5 3 -16 -8 -25 -24z"/>
<path d="M658 1674 c-16 -8 -28 -17 -28 -20 0 -13 44 -84 52 -84 20 0 68 32
62 41 -4 6 -15 4 -30 -5 -29 -20 -34 -20 -34 -2 0 8 9 18 20 21 21 7 28 25 9
25 -6 0 -19 -5 -30 -10 -15 -8 -19 -7 -19 3 0 8 9 17 20 20 11 3 20 10 20 16
0 14 -9 13 -42 -5z"/>
<path d="M1418 1607 c-29 -44 -27 -75 3 -36 l17 23 4 -34 c2 -18 8 -35 13 -37
9 -2 55 66 55 81 0 16 -21 3 -34 -21 l-15 -28 -1 42 c0 23 -4 44 -8 47 -4 2
-20 -14 -34 -37z"/>
<path d="M558 1616 c-10 -7 -18 -16 -18 -20 0 -15 53 -85 61 -80 6 3 5 12 0
21 -6 12 -3 21 11 33 17 14 19 20 9 38 -13 25 -38 28 -63 8z m42 -20 c0 -8 -4
-17 -9 -21 -12 -7 -24 12 -16 25 9 15 25 12 25 -4z"/>
<path d="M982 1535 c-16 -13 -39 -47 -50 -75 l-21 -51 34 -15 c53 -22 134 -14
178 18 16 12 16 16 -5 58 -25 52 -47 80 -62 80 -6 0 -3 -5 6 -11 10 -5 28 -32
41 -59 25 -52 19 -63 -24 -40 -15 9 -19 7 -19 -7 -1 -16 -2 -17 -13 -2 -11 14
-14 14 -26 2 -17 -19 -28 -8 -11 12 11 14 10 17 -8 22 -28 7 -29 23 -2 23 18
0 19 3 10 21 -7 11 -10 22 -8 23 2 2 12 8 23 14 16 9 17 11 3 12 -9 0 -30 -11
-46 -25z"/>
<path d="M1510 1532 c-44 -27 -45 -27 -17 -30 16 -2 31 -11 33 -20 11 -35 28
-62 37 -62 6 0 19 8 30 18 19 16 19 16 12 -8 -4 -14 -10 -30 -12 -36 -2 -7 0
-15 5 -18 12 -7 89 60 79 70 -4 4 -18 -3 -32 -16 -28 -26 -30 -24 -15 16 6 15
8 34 5 42 -4 12 -13 8 -40 -18 -19 -19 -38 -31 -41 -27 -3 3 1 27 10 53 24 71
14 78 -54 36z m37 -29 c-3 -3 -11 -2 -17 2 -9 6 -9 10 1 16 14 8 27 -7 16 -18z"/>
<path d="M446 1521 c-10 -11 -16 -28 -14 -38 4 -19 22 -21 68 -8 21 7 23 6 12
-6 -7 -8 -18 -14 -24 -14 -6 0 -13 -6 -15 -12 -7 -19 32 -16 51 3 35 34 4 75
-41 55 -14 -6 -28 -9 -31 -6 -4 3 4 8 16 12 13 3 21 10 19 16 -6 19 -23 18
-41 -2z"/>
<path d="M801 1513 c-12 -8 -31 -33 -42 -55 -15 -29 -23 -37 -29 -28 -5 7 -6
19 -3 27 4 9 -6 7 -30 -7 -26 -15 -40 -34 -53 -70 -14 -39 -21 -47 -31 -38 -7
6 -13 20 -13 32 0 17 -8 13 -45 -28 -43 -46 -45 -52 -45 -106 0 -48 -5 -64
-26 -90 -37 -44 -31 -105 19 -180 39 -58 50 -100 30 -107 -8 -3 -13 4 -13 17
0 11 -11 32 -25 46 -29 29 -51 24 -34 -8 6 -11 15 -53 20 -92 9 -69 10 -72 64
-123 47 -44 55 -57 55 -87 0 -40 -1 -40 35 -26 25 9 27 14 23 55 -4 50 0 52
58 31 22 -7 60 -16 85 -20 l47 -7 3 44 c3 29 0 43 -7 40 -5 -2 -19 6 -30 18
-18 20 -23 54 -28 191 -1 26 -7 53 -13 59 -10 10 -11 3 -8 -27 3 -27 2 -31 -3
-15 -7 21 -9 22 -21 7 -39 -47 -55 6 -22 74 15 30 17 51 12 90 l-6 50 -20 -30
c-24 -35 -41 -38 -50 -9 -10 30 60 130 98 140 50 13 57 26 57 101 0 59 4 74
25 102 24 32 25 34 6 39 -11 2 -29 -2 -40 -10z m-101 -183 c0 -21 -8 -24 -34
-14 -16 6 -22 35 -10 47 12 11 44 -13 44 -33z m-93 -101 c-13 -21 -42 -25 -53
-8 -8 14 11 27 41 27 21 0 22 -3 12 -19z m6 -195 c-7 -18 -13 -18 -41 2 -25
17 -27 29 -9 49 10 11 16 9 34 -12 12 -13 19 -31 16 -39z m85 -91 c19 -15 11
-26 -12 -17 -9 4 -16 17 -15 33 0 15 3 20 6 11 3 -8 12 -21 21 -27z m-198 -52
c0 -9 7 -27 16 -39 9 -13 11 -22 4 -22 -6 0 -15 12 -21 28 -6 15 -15 35 -20
44 -13 26 -11 32 6 18 8 -7 15 -20 15 -29z m264 -21 c4 -38 3 -50 -4 -40 -9
13 -15 109 -6 99 2 -2 6 -29 10 -59z m-110 -4 c20 -19 33 -37 28 -39 -10 -7
-34 12 -55 43 -12 18 -17 20 -17 8 0 -9 17 -30 37 -47 28 -23 33 -31 19 -31
-20 0 -76 55 -76 75 0 7 6 16 13 18 6 3 12 6 13 6 1 1 18 -14 38 -33z"/>
<path d="M570 1066 c0 -2 8 -10 18 -17 15 -13 16 -12 3 4 -13 16 -21 21 -21
13z"/>
<path d="M1208 1476 c17 -20 35 -56 42 -87 17 -73 44 -120 86 -147 41 -27 59
-61 50 -96 -10 -41 -56 -27 -56 17 0 10 -4 15 -10 12 -22 -14 -9 -77 29 -148
38 -69 45 -91 42 -129 -2 -33 -21 -18 -47 37 -28 59 -38 70 -28 30 7 -29 -15
-93 -26 -75 -4 7 -20 -10 -38 -44 -18 -30 -44 -62 -59 -70 -16 -9 -21 -15 -13
-16 26 0 59 29 83 73 l22 42 3 -39 c4 -46 -43 -129 -60 -105 -6 9 -7 -1 -2
-31 3 -25 8 -47 10 -49 4 -5 150 23 175 34 14 5 16 1 9 -35 -6 -34 -4 -42 11
-50 26 -15 39 -12 39 8 1 9 21 33 47 52 101 77 107 85 105 126 -1 22 -5 52 -8
67 l-6 28 -16 -33 c-11 -21 -24 -33 -37 -33 -35 0 -30 40 13 99 37 52 39 58
31 103 -4 26 -8 56 -8 65 -1 9 -12 29 -25 45 -17 21 -24 44 -28 89 -3 52 -9
68 -36 98 -18 20 -32 41 -32 47 0 6 -4 7 -10 4 -5 -3 -10 -15 -10 -26 0 -32
-25 -17 -28 17 -5 58 -12 72 -37 78 -16 4 -25 13 -25 26 0 31 -17 23 -24 -11
l-6 -31 -35 31 c-30 26 -94 61 -112 61 -3 0 8 -15 25 -34z m162 -112 c0 -18
-23 -44 -39 -44 -17 0 -13 32 7 46 23 18 32 17 32 -2z m140 -169 c0 -22 -22
-35 -42 -24 -29 16 -22 38 12 37 17 -1 30 -6 30 -13z m30 -173 c0 -18 -33 -52
-50 -52 -17 0 -11 19 13 45 27 29 37 31 37 7z m-100 -172 c0 -25 -51 -80 -74
-80 -24 0 -19 29 8 41 13 6 30 22 37 35 15 29 29 31 29 4z"/>
<path d="M374 1435 c-7 -18 45 -107 57 -99 6 3 7 14 4 23 -6 19 16 44 33 39 5
-2 12 1 14 6 1 5 -21 17 -50 27 -44 15 -54 16 -58 4z m50 -36 c-6 -11 -24 -2
-24 11 0 5 7 7 15 4 8 -4 12 -10 9 -15z"/>
<path d="M316 1355 c-20 -36 -16 -56 7 -37 10 8 20 6 42 -8 35 -23 45 -25 45
-7 0 7 -16 21 -36 30 -28 14 -33 21 -25 31 10 12 6 26 -8 26 -4 0 -15 -16 -25
-35z"/>
<path d="M1678 1339 c-36 -18 -55 -48 -23 -35 51 21 49 21 30 -12 -11 -17 -16
-35 -12 -39 11 -10 99 35 92 47 -4 6 -18 4 -37 -6 l-31 -16 22 30 c38 54 24
66 -41 31z"/>
<path d="M280 1286 c0 -16 97 -59 105 -46 3 5 -17 21 -44 35 -58 29 -61 30
-61 11z"/>
<path d="M1000 1265 l-34 -35 22 -23 c27 -29 27 -39 3 -61 -16 -15 -22 -15
-39 -5 -22 14 -37 68 -27 99 3 10 1 21 -5 25 -11 7 -14 -18 -10 -75 1 -19 9
-39 18 -44 37 -21 102 -90 97 -103 -3 -7 -8 -21 -12 -30 -3 -10 12 5 35 34 41
51 100 97 155 121 27 11 27 11 21 -16 l-6 -27 20 30 c15 25 16 31 5 33 -25 6
-140 -57 -173 -95 l-32 -36 -26 27 c-25 25 -26 28 -12 53 8 15 46 43 85 65 39
21 63 38 55 38 -8 0 -38 -13 -67 -29 -49 -27 -53 -28 -67 -12 -22 24 -20 30
11 63 14 15 24 30 22 33 -3 2 -21 -11 -39 -30z"/>
<path d="M1160 1225 c0 -8 2 -15 4 -15 2 0 6 7 10 15 3 8 1 15 -4 15 -6 0 -10
-7 -10 -15z"/>
<path d="M1690 1223 c0 -7 6 -13 14 -13 19 0 29 -30 15 -47 -7 -7 -9 -16 -6
-19 8 -8 87 58 87 73 0 7 -22 13 -55 15 -39 2 -55 -1 -55 -9z m70 -17 c0 -3
-4 -8 -10 -11 -5 -3 -10 -1 -10 4 0 6 5 11 10 11 6 0 10 -2 10 -4z"/>
<path d="M827 1178 c4 -7 8 -70 8 -139 0 -135 -2 -127 70 -225 7 -10 6 -20 -3
-34 -7 -11 -8 -20 -2 -20 5 0 14 9 20 21 9 16 8 25 -5 42 -8 12 -27 37 -40 56
-34 46 -40 90 -25 186 13 82 6 125 -21 125 -6 0 -7 -5 -2 -12z"/>
<path d="M1730 1120 c-9 -17 -8 -27 5 -46 8 -13 19 -24 23 -24 16 0 32 24 32
47 0 13 5 23 11 23 7 0 9 -10 5 -25 -5 -19 -2 -25 9 -25 12 0 15 8 13 33 -2
27 -7 32 -28 32 -20 0 -26 -6 -28 -27 -3 -29 -16 -36 -27 -18 -4 6 -2 17 5 25
7 8 7 15 1 19 -6 4 -15 -3 -21 -14z"/>
<path d="M1783 1042 c-30 -2 -43 -8 -43 -18 0 -12 9 -14 48 -8 26 3 49 8 51
10 12 11 -18 19 -56 16z"/>
<path d="M1757 982 c-35 -39 -15 -82 38 -82 37 0 55 15 55 46 0 24 -34 54 -61
54 -9 0 -23 -8 -32 -18z m68 -37 c0 -13 -8 -21 -24 -23 -28 -4 -46 11 -37 33
9 25 61 16 61 -10z"/>
<path d="M1225 921 c-3 -12 -22 -42 -41 -67 -41 -53 -40 -71 1 -22 29 34 60
97 51 105 -2 2 -7 -5 -11 -16z"/>
<path d="M1740 871 c0 -6 12 -11 28 -11 29 -1 27 -3 -25 -37 -16 -10 -16 -13
-3 -22 20 -14 103 -14 95 -1 -3 6 -21 10 -38 11 l-32 1 38 15 c39 16 50 43 18
43 -10 0 -33 3 -50 6 -20 4 -31 3 -31 -5z"/>
<path d="M1726 750 c5 -33 4 -40 -10 -40 -9 0 -16 -4 -16 -10 0 -11 52 -13 88
-4 33 9 27 25 -24 62 l-44 33 6 -41z m54 -25 c0 -2 -7 -5 -15 -9 -9 -3 -15 0
-15 9 0 9 6 12 15 9 8 -4 15 -7 15 -9z"/>
<path d="M888 723 c7 -3 16 -2 19 1 4 3 -2 6 -13 5 -11 0 -14 -3 -6 -6z"/>
<path d="M1163 723 c9 -2 23 -2 30 0 6 3 -1 5 -18 5 -16 0 -22 -2 -12 -5z"/>
<path d="M993 713 c26 -2 67 -2 90 0 23 2 2 3 -48 3 -49 0 -68 -1 -42 -3z"/>
<path d="M920 665 c0 -8 9 -15 20 -15 12 0 20 7 20 18 0 14 -2 15 -10 2 -6
-10 -10 -11 -10 -2 0 6 -4 12 -10 12 -5 0 -10 -7 -10 -15z"/>
<path d="M988 656 c3 -12 7 -15 10 -8 3 9 8 10 17 2 9 -8 14 -6 17 8 4 14 -1
18 -22 18 -22 0 -26 -3 -22 -20z"/>
<path d="M1057 666 c-3 -8 2 -16 14 -19 21 -6 22 -5 13 17 -8 20 -20 21 -27 2z"/>
<path d="M1116 665 c4 -8 8 -15 10 -15 2 0 4 7 4 15 0 8 -4 15 -10 15 -5 0 -7
-7 -4 -15z"/>
<path d="M1675 650 c-9 -17 -13 -36 -9 -42 4 -7 12 -1 21 16 13 25 15 26 43
11 32 -17 50 -19 50 -7 0 4 -20 18 -45 30 l-45 22 -15 -30z"/>
<path d="M670 622 c0 -8 6 -12 14 -9 8 3 17 1 20 -6 3 -8 5 -8 5 2 1 8 8 5 19
-9 20 -25 43 -20 41 8 -1 16 -2 16 -6 0 -5 -20 -33 -13 -33 9 0 9 -6 13 -15 9
-8 -3 -15 -2 -15 3 0 4 -7 8 -15 8 -8 0 -15 -7 -15 -15z"/>
<path d="M1360 628 c0 -8 -10 -20 -22 -27 -23 -11 -22 -11 2 -4 14 3 31 6 37
6 10 0 10 4 1 16 -7 9 -14 18 -15 20 -2 2 -3 -2 -3 -11z"/>
<path d="M1315 620 c3 -5 8 -10 11 -10 2 0 4 5 4 10 0 6 -5 10 -11 10 -5 0 -7
-4 -4 -10z"/>
<path d="M1280 600 c0 -13 5 -18 14 -14 8 3 12 12 9 20 -8 21 -23 17 -23 -6z"/>
<path d="M780 594 c0 -14 3 -14 15 -4 8 7 15 14 15 16 0 2 -7 4 -15 4 -8 0
-15 -7 -15 -16z"/>
<path d="M812 598 c-17 -17 -15 -24 7 -25 14 -1 17 3 14 18 -6 22 -6 22 -21 7z"/>
<path d="M1240 606 c0 -2 6 -9 13 -15 10 -8 14 -7 14 4 0 8 -6 15 -14 15 -7 0
-13 -2 -13 -4z"/>
<path d="M1375 569 c-18 -9 -18 -9 3 -5 21 4 23 1 21 -27 -4 -43 5 -55 51 -67
61 -16 173 -28 194 -20 12 4 -14 9 -65 13 -46 3 -102 12 -124 19 -38 13 -40
15 -39 56 1 43 -5 48 -41 31z"/>
<path d="M1626 544 c-37 -32 -30 -39 9 -9 16 13 27 26 25 29 -3 2 -18 -7 -34
-20z"/>
<path d="M1440 395 c0 -4 7 -19 15 -35 22 -42 38 -37 18 5 -14 30 -33 47 -33
30z"/>
</g>
</svg>
